<svg xmlns="http://www.w3.org/2000/svg" xmlns:xlink="http://www.w3.org/1999/xlink" width="308.7612359841165" zoomAndPan="magnify" viewBox="0 0 768 767.999994" height="304.915625" preserveAspectRatio="xMidYMid meet" version="1.0"><defs><filter x="0%" y="0%" width="100%" height="100%" id="9a8ad0aa2e"><feColorMatrix values="0 0 0 0 1 0 0 0 0 1 0 0 0 0 1 0 0 0 1 0" color-interpolation-filters="sRGB"/></filter><g/><mask id="487d0a57e3"><g filter="url(#9a8ad0aa2e)"><rect x="-76.8" width="921.6" fill="#000000" y="-76.799999" height="921.599993" fill-opacity="0.49"/></g></mask><clipPath id="0d97daa279"><rect x="0" width="768" y="0" height="768"/></clipPath><clipPath id="56e2fab7de"><path d="M 107.519531 160 L 585 160 L 585 768 L 107.519531 768 Z M 107.519531 160 " clip-rule="nonzero"/></clipPath><clipPath id="059361f26e"><path d="M 182 7 L 660.269531 7 L 660.269531 614 L 182 614 Z M 182 7 " clip-rule="nonzero"/></clipPath><mask id="9489ff9c9a"><g filter="url(#9a8ad0aa2e)"><rect x="-76.8" width="921.6" fill="#000000" y="-76.799999" height="921.599993" fill-opacity="0.8"/></g></mask><clipPath id="8b5d2e31a4"><rect x="0" width="287" y="0" height="96"/></clipPath></defs><g mask="url(#487d0a57e3)"><g transform="matrix(1, 0, 0, 1, 0, -0.000000000000057351)"><g clip-path="url(#0d97daa279)"><path fill="#ba8a3e" d="M 89.644531 89.640625 L 89.644531 8.894531 L 8.894531 8.894531 L 8.894531 89.640625 Z M 268.921875 183.722656 L 268.921875 98.53125 L 188.164062 98.53125 L 188.164062 188.171875 L 98.53125 188.171875 L 98.53125 268.914062 L 268.921875 268.914062 Z M 98.53125 179.28125 L 179.28125 179.28125 L 179.28125 98.53125 L 98.53125 98.53125 Z M 505.769531 38.441406 L 505.769531 86.46875 L 581.09375 86.46875 L 581.09375 38.441406 Z M 496.878906 143.375 L 496.878906 95.359375 L 421.554688 95.359375 L 421.554688 143.375 Z M 375.414062 49.210938 L 375.414062 86.46875 L 412.671875 86.46875 L 412.671875 49.210938 Z M 366.53125 8.894531 L 234.691406 8.894531 L 234.691406 40.328125 L 366.53125 40.328125 Z M 88.640625 505.773438 L 40.613281 505.773438 L 40.613281 581.097656 L 88.640625 581.097656 Z M 97.53125 496.886719 L 145.554688 496.886719 L 145.554688 421.558594 L 97.53125 421.558594 Z M 88.640625 375.417969 L 51.390625 375.417969 L 51.390625 412.671875 L 88.640625 412.671875 Z M 11.066406 234.699219 L 11.066406 366.53125 L 42.5 366.53125 L 42.5 234.699219 Z M 2.1875 367.714844 L 2.1875 179.28125 L 89.644531 179.28125 L 89.644531 98.53125 L 0.00390625 98.53125 L 0.00390625 0.00390625 L 98.53125 0.00390625 L 98.53125 89.640625 L 179.28125 89.640625 L 179.28125 0.00390625 L 375.414062 0.00390625 L 375.414062 40.328125 L 421.554688 40.328125 L 421.554688 86.46875 L 496.878906 86.46875 L 496.878906 29.558594 L 589.980469 29.558594 L 589.980469 86.46875 L 768 86.46875 L 768 95.359375 L 505.769531 95.359375 L 505.769531 152.269531 L 412.671875 152.269531 L 412.671875 95.359375 L 366.53125 95.359375 L 366.53125 49.210938 L 225.804688 49.210938 L 225.804688 8.894531 L 188.164062 8.894531 L 188.164062 89.640625 L 277.800781 89.640625 L 277.800781 277.804688 L 89.644531 277.804688 L 89.644531 188.171875 L 11.066406 188.171875 L 11.066406 225.808594 L 51.390625 225.808594 L 51.390625 366.53125 L 97.53125 366.53125 L 97.53125 412.671875 L 154.4375 412.671875 L 154.4375 505.773438 L 97.53125 505.773438 L 97.53125 768 L 88.640625 768 L 88.640625 589.980469 L 31.734375 589.980469 L 31.734375 496.886719 L 88.640625 496.886719 L 88.640625 421.558594 L 42.5 421.558594 L 42.5 375.417969 L 2.1875 375.417969 L 2.1875 367.714844 " fill-opacity="1" fill-rule="evenodd"/></g></g></g><path fill="#ba8a3e" d="M 678.355469 678.359375 L 678.355469 759.105469 L 759.105469 759.105469 L 759.105469 678.359375 Z M 499.078125 584.277344 L 499.078125 669.46875 L 579.835938 669.46875 L 579.835938 579.828125 L 669.46875 579.828125 L 669.46875 499.085938 L 499.078125 499.085938 Z M 669.46875 588.71875 L 588.71875 588.71875 L 588.71875 669.46875 L 669.46875 669.46875 Z M 262.230469 729.558594 L 262.230469 681.53125 L 186.90625 681.53125 L 186.90625 729.558594 Z M 271.121094 624.625 L 271.121094 672.640625 L 346.445312 672.640625 L 346.445312 624.625 Z M 392.585938 718.789062 L 392.585938 681.53125 L 355.328125 681.53125 L 355.328125 718.789062 Z M 401.46875 759.105469 L 533.308594 759.105469 L 533.308594 727.671875 L 401.46875 727.671875 Z M 679.359375 262.226562 L 727.386719 262.226562 L 727.386719 186.902344 L 679.359375 186.902344 Z M 670.46875 271.113281 L 622.445312 271.113281 L 622.445312 346.441406 L 670.46875 346.441406 Z M 679.359375 392.582031 L 716.609375 392.582031 L 716.609375 355.328125 L 679.359375 355.328125 Z M 756.933594 533.300781 L 756.933594 401.46875 L 725.5 401.46875 L 725.5 533.300781 Z M 765.8125 400.285156 L 765.8125 588.71875 L 678.355469 588.71875 L 678.355469 669.46875 L 767.996094 669.46875 L 767.996094 767.996094 L 669.46875 767.996094 L 669.46875 678.359375 L 588.71875 678.359375 L 588.71875 767.996094 L 392.585938 767.996094 L 392.585938 727.671875 L 346.445312 727.671875 L 346.445312 681.53125 L 271.121094 681.53125 L 271.121094 738.441406 L 178.019531 738.441406 L 178.019531 681.53125 L 0 681.53125 L 0 672.640625 L 262.230469 672.640625 L 262.230469 615.730469 L 355.328125 615.730469 L 355.328125 672.640625 L 401.46875 672.640625 L 401.46875 718.789062 L 542.195312 718.789062 L 542.195312 759.105469 L 579.835938 759.105469 L 579.835938 678.359375 L 490.199219 678.359375 L 490.199219 490.195312 L 678.355469 490.195312 L 678.355469 579.828125 L 756.933594 579.828125 L 756.933594 542.191406 L 716.609375 542.191406 L 716.609375 401.46875 L 670.46875 401.46875 L 670.46875 355.328125 L 613.5625 355.328125 L 613.5625 262.226562 L 670.46875 262.226562 L 670.46875 0 L 679.359375 0 L 679.359375 178.019531 L 736.265625 178.019531 L 736.265625 271.113281 L 679.359375 271.113281 L 679.359375 346.441406 L 725.5 346.441406 L 725.5 392.582031 L 765.8125 392.582031 L 765.8125 400.285156 " fill-opacity="1" fill-rule="evenodd"/><g clip-path="url(#56e2fab7de)"><path fill="#b29d7b" d="M 506.640625 616.859375 C 506.640625 541.378906 506.640625 467.058594 506.640625 392.714844 C 505.683594 392.355469 504.726562 391.992188 503.769531 391.609375 C 464.246094 441.238281 424.707031 490.847656 383.746094 542.273438 C 369.167969 524.113281 355.203125 506.726562 340 487.792969 C 265.441406 581.480469 191.484375 674.394531 116.910156 768.097656 C 113.511719 765.375 110.785156 763.195312 107.550781 760.605469 C 266.285156 561.042969 424.425781 362.207031 584.578125 160.847656 C 584.578125 314.761719 584.578125 465.4375 584.578125 616.859375 C 558.992188 616.859375 534.0625 616.859375 506.640625 616.859375 Z M 506.640625 616.859375 " fill-opacity="1" fill-rule="nonzero"/></g><g clip-path="url(#059361f26e)"><path fill="#b29d7b" d="M 182.949219 162.925781 C 240.878906 235.714844 296.992188 306.242188 354.359375 378.335938 C 358.71875 373.105469 362.550781 368.648438 366.199219 364.058594 C 458.203125 248.328125 550.175781 132.535156 642.328125 16.90625 C 646.390625 11.820312 650.234375 0.0664062 660.390625 13.453125 C 544.742188 158.851562 429.015625 304.359375 311.949219 451.554688 C 295.636719 431.347656 280.101562 412.082031 262.753906 390.605469 C 262.09375 396.25 261.382812 399.484375 261.382812 402.738281 C 261.316406 436.285156 261.730469 469.847656 261.035156 503.375 C 260.886719 510.277344 258.292969 518.300781 254.117188 523.730469 C 231.484375 553.300781 207.992188 582.222656 182.929688 613.707031 C 182.949219 462.632812 182.949219 314.414062 182.949219 162.925781 Z M 182.949219 162.925781 " fill-opacity="1" fill-rule="nonzero"/></g><g mask="url(#9489ff9c9a)"><g transform="matrix(1, 0, 0, 1, 224, 527)"><g clip-path="url(#8b5d2e31a4)"><g fill="#ffecce" fill-opacity="1"><g transform="translate(1.015024, 68.312787)"><g><path d="M 46.359375 -37.171875 C 41.234375 -42.015625 33.46875 -41.171875 27.140625 -40.03125 C 18.234375 -38.453125 9.828125 -34.828125 2.34375 -29.703125 C 1 -28.703125 4.125 -25.28125 5.703125 -26.34375 C 11.390625 -30.34375 17.734375 -33.328125 24.5 -35.1875 C 27.84375 -36.109375 31.34375 -36.75 34.890625 -37.03125 C 37.671875 -37.25 40.8125 -37.3125 43.375 -36.03125 C 49.703125 -32.96875 44.234375 -22.9375 41.59375 -19.09375 C 37.890625 -13.671875 32.90625 -9.328125 27.640625 -5.484375 C 22.359375 -1.5625 16.734375 1.640625 10.75 4.34375 C 13.390625 -6.40625 18.9375 -16.375 26.703125 -24.421875 C 27.921875 -25.703125 24.640625 -29.0625 23.359375 -27.703125 C 14.3125 -18.296875 8.328125 -6.40625 6.125 6.34375 C 5.84375 6.625 5.765625 7.046875 5.90625 7.484375 C 5.84375 8.046875 5.765625 8.625 5.703125 9.1875 C 5.484375 10.828125 9.1875 13.453125 9.46875 11.109375 C 9.546875 10.609375 9.609375 10.109375 9.6875 9.609375 C 17.015625 6.6875 23.921875 2.921875 30.34375 -1.703125 C 36.46875 -6.125 42.234375 -11.328125 46.21875 -17.796875 C 49.78125 -23.71875 52.0625 -31.765625 46.359375 -37.171875 Z M 46.359375 -37.171875 "/></g></g></g><g fill="#ffecce" fill-opacity="1"><g transform="translate(50.503885, 68.312787)"><g><path d="M 27.984375 2.34375 C 23.859375 5.125 19.234375 7.046875 14.3125 7.96875 C 12.390625 8.328125 10.390625 8.46875 8.46875 7.96875 C 6.125 7.40625 5.484375 5.84375 5.984375 3.484375 C 6.984375 -0.921875 9.90625 -5.265625 12.53125 -8.90625 C 15.3125 -12.75 18.59375 -16.234375 22.21875 -19.375 C 23.640625 -20.515625 20.515625 -23.140625 19.234375 -22.859375 C 17.953125 -22.5 16.171875 -21.796875 14.8125 -22.15625 C 13.109375 -22.640625 13.453125 -24.078125 14.03125 -25.5 C 14.890625 -27.5625 16.375 -29.40625 18.015625 -30.984375 C 21.296875 -33.96875 25.5625 -35.6875 29.984375 -35.609375 C 32.265625 -35.609375 29.703125 -39.390625 28.0625 -39.453125 C 21.359375 -39.453125 14.890625 -35.96875 11.390625 -30.203125 C 9.546875 -27.140625 8.96875 -23.640625 11.609375 -20.859375 C 12.609375 -19.796875 13.671875 -19.234375 14.890625 -18.875 C 11.890625 -15.875 9.328125 -12.53125 7.046875 -8.96875 C 4.34375 -4.703125 0.28125 1.5 2.921875 6.625 C 5.125 11.03125 10.328125 12.390625 14.890625 11.96875 C 20.796875 11.328125 26.421875 8.90625 31.265625 5.625 C 32.6875 4.765625 29.5625 1.28125 27.984375 2.34375 Z M 27.984375 2.34375 "/></g></g></g><g fill="#ffecce" fill-opacity="1"><g transform="translate(78.63058, 68.312787)"><g><path d="M 43.9375 -40.8125 C 36.8125 -28.84375 29.5625 -16.875 21.015625 -5.90625 C 19.09375 -3.34375 17.015625 -0.78125 14.8125 1.5625 C 13.75 2.703125 12.671875 3.78125 11.46875 4.703125 C 10.6875 5.265625 7.625 7.765625 6.546875 7.046875 C 5.765625 6.484375 5.90625 3.484375 5.90625 2.640625 C 5.84375 0.640625 6.046875 -1.28125 6.34375 -3.28125 C 6.90625 -6.484375 7.765625 -9.75 8.6875 -12.890625 C 10.890625 -20.15625 14.09375 -27.203125 18.09375 -33.6875 C 19.09375 -35.25 15.671875 -38.390625 14.8125 -36.96875 C 10.6875 -30.34375 7.40625 -23.359375 5.125 -15.953125 C 3.984375 -12.171875 2.984375 -8.328125 2.421875 -4.421875 C 2 -0.921875 1.703125 3.140625 3.0625 6.484375 C 4.203125 9.1875 6.84375 11.390625 9.90625 10.6875 C 13.171875 9.90625 16.171875 7.046875 18.375 4.625 C 23.859375 -1.28125 28.5625 -8.046875 33.046875 -14.75 C 38.171875 -22.359375 42.9375 -30.203125 47.640625 -38.109375 C 48.5 -39.453125 45.015625 -42.515625 43.9375 -40.8125 Z M 43.9375 -40.8125 "/></g></g></g><g fill="#ffecce" fill-opacity="1"><g transform="translate(113.165919, 68.312787)"><g/></g></g><g fill="#ffecce" fill-opacity="1"><g transform="translate(137.518622, 68.312787)"><g><path d="M 48.078125 -28.484375 C 47 -18.375 42.734375 -7.765625 35.390625 -0.5 C 34.46875 0.421875 33.328125 1 32.265625 1.859375 C 32.265625 1.859375 32.265625 1.921875 32.1875 2 C 32.1875 1.921875 32.1875 1.859375 32.1875 1.703125 C 32.1875 1.28125 32.1875 0.859375 32.265625 0.421875 C 32.40625 -1.921875 32.6875 -4.34375 32.96875 -6.6875 C 33.546875 -11.6875 34.328125 -16.671875 35.828125 -21.515625 C 36.390625 -22.578125 34.609375 -24.578125 33.265625 -24.71875 C 32.765625 -24.859375 32.328125 -24.71875 32.125 -24.21875 C 28.703125 -17.796875 24.78125 -11.6875 20.515625 -5.90625 C 18.375 -3.0625 16.171875 -0.28125 13.8125 2.421875 C 12.8125 3.5625 11.75 4.84375 10.609375 5.90625 C 11.1875 3.78125 11.96875 1.640625 12.8125 -0.421875 C 14.390625 -4.265625 15.953125 -8.125 17.515625 -11.96875 C 19.15625 -15.875 20.71875 -19.796875 22.359375 -23.640625 C 23.21875 -25.703125 24.078125 -27.78125 24.859375 -29.90625 C 25.5 -31.34375 26.140625 -32.765625 26 -34.40625 C 25.703125 -36.96875 23.359375 -39.59375 20.65625 -39.390625 C 17.734375 -39.171875 14.390625 -36.46875 12.109375 -34.75 C 6.984375 -30.84375 1.359375 -24.859375 2.140625 -17.875 C 2.203125 -16.8125 3.0625 -15.734375 4.0625 -15.3125 C 4.703125 -14.953125 6.046875 -14.8125 5.90625 -15.953125 C 5.203125 -22.078125 10.1875 -27.203125 14.59375 -30.765625 C 15.671875 -31.6875 16.875 -32.46875 18.015625 -33.265625 C 19.296875 -34.046875 20.859375 -34.546875 22 -35.390625 C 22.078125 -35.390625 22.15625 -35.390625 22.21875 -35.390625 C 22.15625 -35.328125 22.15625 -35.25 22.15625 -35.1875 C 22.078125 -34.546875 21.796875 -33.96875 21.515625 -33.328125 C 20.859375 -31.6875 20.15625 -29.984375 19.4375 -28.28125 C 16.875 -21.9375 14.25 -15.59375 11.609375 -9.265625 C 9.1875 -3.28125 6.265625 2.703125 6.046875 9.1875 C 5.984375 10.546875 7.90625 12.390625 9.265625 11.96875 C 12.390625 11.109375 14.53125 8.625 16.671875 6.265625 C 19.15625 3.421875 21.515625 0.421875 23.78125 -2.640625 C 25.78125 -5.265625 27.640625 -7.96875 29.40625 -10.75 C 29.203125 -9.109375 29.0625 -7.484375 28.84375 -5.90625 C 28.625 -3.34375 27.984375 -0.5 28.84375 2 C 29.625 4.125 31.828125 6.265625 34.328125 5.765625 C 37.109375 5.125 39.453125 2.140625 41.171875 0 C 43.09375 -2.5 44.875 -5.203125 46.296875 -7.96875 C 49.359375 -13.8125 51.140625 -20.078125 51.84375 -26.5625 C 52.0625 -28.125 48.359375 -30.765625 48.078125 -28.484375 Z M 48.078125 -28.484375 "/></g></g></g><g fill="#ffecce" fill-opacity="1"><g transform="translate(189.001285, 68.312787)"><g><path d="M 27.984375 2.34375 C 23.859375 5.125 19.234375 7.046875 14.3125 7.96875 C 12.390625 8.328125 10.390625 8.46875 8.46875 7.96875 C 6.125 7.40625 5.484375 5.84375 5.984375 3.484375 C 6.984375 -0.921875 9.90625 -5.265625 12.53125 -8.90625 C 15.3125 -12.75 18.59375 -16.234375 22.21875 -19.375 C 23.640625 -20.515625 20.515625 -23.140625 19.234375 -22.859375 C 17.953125 -22.5 16.171875 -21.796875 14.8125 -22.15625 C 13.109375 -22.640625 13.453125 -24.078125 14.03125 -25.5 C 14.890625 -27.5625 16.375 -29.40625 18.015625 -30.984375 C 21.296875 -33.96875 25.5625 -35.6875 29.984375 -35.609375 C 32.265625 -35.609375 29.703125 -39.390625 28.0625 -39.453125 C 21.359375 -39.453125 14.890625 -35.96875 11.390625 -30.203125 C 9.546875 -27.140625 8.96875 -23.640625 11.609375 -20.859375 C 12.609375 -19.796875 13.671875 -19.234375 14.890625 -18.875 C 11.890625 -15.875 9.328125 -12.53125 7.046875 -8.96875 C 4.34375 -4.703125 0.28125 1.5 2.921875 6.625 C 5.125 11.03125 10.328125 12.390625 14.890625 11.96875 C 20.796875 11.328125 26.421875 8.90625 31.265625 5.625 C 32.6875 4.765625 29.5625 1.28125 27.984375 2.34375 Z M 27.984375 2.34375 "/></g></g></g><g fill="#ffecce" fill-opacity="1"><g transform="translate(217.127966, 68.312787)"><g><path d="M 17.875 8.265625 C 18.015625 -3.28125 21.359375 -14.59375 27.640625 -24.359375 C 28.625 -25.921875 25.21875 -28.984375 24.28125 -27.640625 C 17.796875 -17.453125 14.25 -5.765625 14.03125 6.34375 C 14.03125 7.96875 17.796875 10.546875 17.875 8.265625 Z M 53.34375 -37.609375 C 48.421875 -42.515625 40.453125 -40.953125 34.46875 -39.53125 C 27.140625 -37.75 20.015625 -34.828125 13.609375 -30.90625 C 9.046875 -28.203125 2.703125 -24.078125 2.0625 -18.234375 C 1.859375 -16.671875 5.5625 -14.03125 5.84375 -16.375 C 6.265625 -20.296875 10.890625 -23.578125 13.890625 -25.640625 C 18.9375 -29.203125 24.71875 -31.90625 30.546875 -33.90625 C 36.109375 -35.828125 43.015625 -38.109375 48.859375 -36.890625 C 57.328125 -35.109375 47.5 -25.0625 44.515625 -22.5 C 38.453125 -17.375 31.125 -14.09375 23.28125 -12.8125 C 21.4375 -12.53125 24.359375 -9.109375 25.640625 -9.109375 C 28.484375 -9.109375 32.1875 -9.1875 34.6875 -7.484375 C 38.03125 -5.203125 35.1875 -0.140625 33.046875 1.921875 C 30.34375 4.625 26.640625 6.765625 23.140625 8.40625 C 19.4375 10.109375 15.09375 11.390625 11.25 9.328125 C 10.46875 8.90625 9.546875 8.96875 9.40625 10.046875 C 9.328125 11.03125 10.546875 12.171875 11.328125 12.609375 C 16.171875 15.171875 21.4375 14.171875 26.203125 11.890625 C 30.625 9.75 36.109375 6.765625 38.59375 2.28125 C 40.953125 -1.921875 39.8125 -6.90625 35.96875 -9.828125 C 35.25 -10.390625 34.546875 -10.828125 33.828125 -11.1875 C 38.890625 -12.96875 43.65625 -15.671875 47.78125 -19.234375 C 52.921875 -23.578125 59.6875 -31.265625 53.34375 -37.609375 Z M 53.34375 -37.609375 "/></g></g></g><g fill="#ffecce" fill-opacity="1"><g transform="translate(262.276762, 68.312787)"><g/></g></g></g></g></g></svg>